# This file uses centimeters as units for non-parametric coordinates.

mtllib Hub.mtl
g default
v 3.307617 0.000000 -1.074710
v 2.813628 0.000000 -2.044220
v 2.044220 0.000000 -2.813627
v 1.074709 0.000000 -3.307617
v 0.000000 0.000000 -3.477834
v -1.074711 0.000000 -3.307617
v -2.044222 0.000000 -2.813626
v -2.813629 0.000000 -2.044219
v -3.307616 0.000000 -1.074709
v -3.477833 0.000000 0.000001
v -3.307616 0.000000 1.074711
v -2.813629 0.000000 2.044219
v -2.044221 0.000000 2.813626
v -1.074711 0.000000 3.307617
v -0.000000 0.000000 3.477834
v 1.074709 0.000000 3.307617
v 2.044218 0.000000 2.813626
v 2.813625 0.000000 2.044219
v 3.307614 0.000000 1.074711
v 3.477833 0.000000 0.000001
v 0.000000 0.000000 0.000001
vt 0.960954 0.351259
vt 0.892111 0.216147
vt 0.784886 0.108921
vt 0.649773 0.040078
vt 0.500000 0.016356
vt 0.350227 0.040078
vt 0.215115 0.108921
vt 0.107889 0.216147
vt 0.039046 0.351259
vt 0.015324 0.501033
vt 0.039046 0.650806
vt 0.107889 0.785918
vt 0.215115 0.893144
vt 0.350227 0.961987
vt 0.500000 0.985708
vt 0.649773 0.961987
vt 0.784885 0.893144
vt 0.892111 0.785918
vt 0.960954 0.650806
vt 0.984676 0.501033
vt 0.500000 0.481645
vn 0.000000 1.000000 0.000000
vn 0.000000 1.000000 0.000000
vn 0.000000 1.000000 0.000000
vn 0.000000 1.000000 0.000000
vn 0.000000 1.000000 0.000000
vn 0.000000 1.000000 0.000000
vn 0.000000 1.000000 0.000000
vn 0.000000 1.000000 0.000000
vn 0.000000 1.000000 0.000000
vn 0.000000 1.000000 0.000000
vn 0.000000 1.000000 0.000000
vn 0.000000 1.000000 0.000000
vn 0.000000 1.000000 0.000000
vn 0.000000 1.000000 0.000000
vn 0.000000 1.000000 0.000000
vn 0.000000 1.000000 0.000000
vn 0.000000 1.000000 0.000000
vn 0.000000 1.000000 0.000000
vn 0.000000 1.000000 0.000000
vn 0.000000 1.000000 0.000000
vn 0.000000 1.000000 0.000000
s 1
g Hub
usemtl lambert8SG
f 1/19/1 2/18/2 21/21/3
f 2/18/2 3/17/4 21/21/3
f 3/17/4 4/16/5 21/21/3
f 4/16/5 5/15/6 21/21/3
f 5/15/6 6/14/7 21/21/3
f 6/14/7 7/13/8 21/21/3
f 7/13/8 8/12/9 21/21/3
f 8/12/9 9/11/10 21/21/3
f 9/11/10 10/10/11 21/21/3
f 10/10/11 11/9/12 21/21/3
f 11/9/12 12/8/13 21/21/3
f 12/8/13 13/7/14 21/21/3
f 13/7/14 14/6/15 21/21/3
f 14/6/15 15/5/16 21/21/3
f 15/5/16 16/4/17 21/21/3
f 16/4/17 17/3/18 21/21/3
f 17/3/18 18/2/19 21/21/3
f 18/2/19 19/1/20 21/21/3
f 19/1/20 20/20/21 21/21/3
f 20/20/21 1/19/1 21/21/3
